<mxfile host="app.diagrams.net" agent="Mozilla/5.0 (Windows NT 10.0; Win64; x64) AppleWebKit/537.36 (KHTML, like Gecko) Chrome/129.0.0.0 Safari/537.36" version="24.7.17">
  <diagram name="Page-1" id="rxsMN2jyJOsJeUnfH-_o">
    <mxGraphModel dx="1122" dy="454" grid="1" gridSize="10" guides="1" tooltips="1" connect="1" arrows="1" fold="1" page="1" pageScale="1" pageWidth="827" pageHeight="1169" math="0" shadow="0">
      <root>
        <mxCell id="0" />
        <mxCell id="1" parent="0" />
        <mxCell id="QYW9_vvvv_BW2tdhqNMw-6" style="edgeStyle=orthogonalEdgeStyle;rounded=0;orthogonalLoop=1;jettySize=auto;html=1;entryX=0;entryY=0.5;entryDx=0;entryDy=0;" edge="1" parent="1" source="QYW9_vvvv_BW2tdhqNMw-1" target="QYW9_vvvv_BW2tdhqNMw-4">
          <mxGeometry relative="1" as="geometry" />
        </mxCell>
        <mxCell id="QYW9_vvvv_BW2tdhqNMw-1" value="Student" style="rounded=1;whiteSpace=wrap;html=1;" vertex="1" parent="1">
          <mxGeometry x="100" y="190" width="120" height="60" as="geometry" />
        </mxCell>
        <mxCell id="QYW9_vvvv_BW2tdhqNMw-8" style="edgeStyle=orthogonalEdgeStyle;rounded=0;orthogonalLoop=1;jettySize=auto;html=1;entryX=0.5;entryY=0;entryDx=0;entryDy=0;" edge="1" parent="1" source="QYW9_vvvv_BW2tdhqNMw-4" target="QYW9_vvvv_BW2tdhqNMw-7">
          <mxGeometry relative="1" as="geometry" />
        </mxCell>
        <mxCell id="QYW9_vvvv_BW2tdhqNMw-4" value="Makes Payment" style="ellipse;whiteSpace=wrap;html=1;aspect=fixed;" vertex="1" parent="1">
          <mxGeometry x="270" y="90" width="80" height="80" as="geometry" />
        </mxCell>
        <mxCell id="QYW9_vvvv_BW2tdhqNMw-15" style="edgeStyle=orthogonalEdgeStyle;rounded=0;orthogonalLoop=1;jettySize=auto;html=1;entryX=0;entryY=0.5;entryDx=0;entryDy=0;" edge="1" parent="1" source="QYW9_vvvv_BW2tdhqNMw-5" target="QYW9_vvvv_BW2tdhqNMw-14">
          <mxGeometry relative="1" as="geometry" />
        </mxCell>
        <mxCell id="QYW9_vvvv_BW2tdhqNMw-5" value="Sends Payment Status" style="ellipse;whiteSpace=wrap;html=1;aspect=fixed;" vertex="1" parent="1">
          <mxGeometry x="450" y="210" width="80" height="80" as="geometry" />
        </mxCell>
        <mxCell id="QYW9_vvvv_BW2tdhqNMw-9" style="edgeStyle=orthogonalEdgeStyle;rounded=0;orthogonalLoop=1;jettySize=auto;html=1;entryX=0;entryY=0.5;entryDx=0;entryDy=0;" edge="1" parent="1" source="QYW9_vvvv_BW2tdhqNMw-7" target="QYW9_vvvv_BW2tdhqNMw-5">
          <mxGeometry relative="1" as="geometry" />
        </mxCell>
        <mxCell id="QYW9_vvvv_BW2tdhqNMw-7" value="Transaction Database" style="shape=partialRectangle;whiteSpace=wrap;html=1;left=0;right=0;fillColor=none;" vertex="1" parent="1">
          <mxGeometry x="270" y="250" width="120" height="50" as="geometry" />
        </mxCell>
        <mxCell id="QYW9_vvvv_BW2tdhqNMw-14" value="Document Management" style="ellipse;whiteSpace=wrap;html=1;aspect=fixed;" vertex="1" parent="1">
          <mxGeometry x="620" y="130" width="80" height="80" as="geometry" />
        </mxCell>
        <mxCell id="QYW9_vvvv_BW2tdhqNMw-16" value="Pays" style="text;html=1;align=center;verticalAlign=middle;whiteSpace=wrap;rounded=0;" vertex="1" parent="1">
          <mxGeometry x="200" y="140" width="60" height="30" as="geometry" />
        </mxCell>
        <mxCell id="QYW9_vvvv_BW2tdhqNMw-17" value="Stores Payment Staus" style="text;html=1;align=center;verticalAlign=middle;whiteSpace=wrap;rounded=0;" vertex="1" parent="1">
          <mxGeometry x="320" y="180" width="60" height="30" as="geometry" />
        </mxCell>
        <mxCell id="QYW9_vvvv_BW2tdhqNMw-18" value="Fetches Payment Status" style="text;html=1;align=center;verticalAlign=middle;whiteSpace=wrap;rounded=0;" vertex="1" parent="1">
          <mxGeometry x="520" y="190" width="60" height="30" as="geometry" />
        </mxCell>
      </root>
    </mxGraphModel>
  </diagram>
</mxfile>
